<svg width="90" height="78" viewBox="0 0 90 78" fill="none" xmlns="http://www.w3.org/2000/svg">
<g id="&#240;&#159;&#166;&#134; icon &#34;quote-left&#34;">
<path id="Vector" d="M80.7857 39H66.8571V27.8571C66.8571 21.7112 71.854 16.7143 78 16.7143H79.3929C81.7085 16.7143 83.5714 14.8513 83.5714 12.5357V4.17857C83.5714 1.86295 81.7085 0 79.3929 0H78C62.6089 0 50.1429 12.4661 50.1429 27.8571V69.6429C50.1429 74.2567 53.8862 78 58.5 78H80.7857C85.3996 78 89.1429 74.2567 89.1429 69.6429V47.3571C89.1429 42.7433 85.3996 39 80.7857 39ZM30.6429 39H16.7143V27.8571C16.7143 21.7112 21.7112 16.7143 27.8571 16.7143H29.25C31.5656 16.7143 33.4286 14.8513 33.4286 12.5357V4.17857C33.4286 1.86295 31.5656 0 29.25 0H27.8571C12.4661 0 0 12.4661 0 27.8571V69.6429C0 74.2567 3.7433 78 8.35714 78H30.6429C35.2567 78 39 74.2567 39 69.6429V47.3571C39 42.7433 35.2567 39 30.6429 39Z" fill="white"/>
</g>
</svg>
