<svg width="90" height="78" viewBox="0 0 90 78" fill="none" xmlns="http://www.w3.org/2000/svg">
<g id="&#240;&#159;&#166;&#134; icon &#34;quote-right&#34;">
<path id="Vector" d="M80.7831 0H58.4981C53.8844 0 50.1413 3.74318 50.1413 8.35687V30.6419C50.1413 35.2556 53.8844 38.9987 58.4981 38.9987H72.4262V50.1413C72.4262 56.287 67.4295 61.2837 61.2837 61.2837H59.8909C57.5754 61.2837 55.7125 63.1466 55.7125 65.4622V73.8191C55.7125 76.1346 57.5754 77.9975 59.8909 77.9975H61.2837C76.6743 77.9975 89.14 65.5318 89.14 50.1413V8.35687C89.14 3.74318 85.3968 0 80.7831 0ZM30.6419 0H8.35687C3.74318 0 0 3.74318 0 8.35687V30.6419C0 35.2556 3.74318 38.9987 8.35687 38.9987H22.285V50.1413C22.285 56.287 17.2883 61.2837 11.1425 61.2837H9.74969C7.43414 61.2837 5.57125 63.1466 5.57125 65.4622V73.8191C5.57125 76.1346 7.43414 77.9975 9.74969 77.9975H11.1425C26.5331 77.9975 38.9987 65.5318 38.9987 50.1413V8.35687C38.9987 3.74318 35.2556 0 30.6419 0Z" fill="white"/>
</g>
</svg>
