<svg width="37" height="37" viewBox="0 0 37 37" fill="none" xmlns="http://www.w3.org/2000/svg">
<g clip-path="url(#clip0_0_1492)">
<path d="M7.83348 14.0487C5.63982 14.0487 3.85519 15.8333 3.85519 18.027C3.85519 20.2207 5.63982 22.0053 7.83348 22.0053C10.0271 22.0053 11.8118 20.2207 11.8118 18.027C11.8118 15.8333 10.0271 14.0487 7.83348 14.0487ZM7.83348 19.8424C6.83251 19.8424 6.01806 19.028 6.01806 18.027C6.01806 17.026 6.83251 16.2116 7.83348 16.2116C8.83445 16.2116 9.6489 17.026 9.6489 18.027C9.6489 19.028 8.83445 19.8424 7.83348 19.8424Z" fill="white" fill-opacity="0.5"/>
<path d="M14.8782 23.4452C12.6846 23.4452 10.9 25.2298 10.9 27.4235C10.9 29.6171 12.6846 31.4017 14.8782 31.4017C17.0719 31.4017 18.8565 29.6171 18.8565 27.4235C18.8565 25.2298 17.0719 23.4452 14.8782 23.4452ZM14.8782 29.2388C13.8773 29.2388 13.0629 28.4245 13.0629 27.4234C13.0629 26.4224 13.8773 25.608 14.8782 25.608C15.8793 25.608 16.6937 26.4224 16.6937 27.4234C16.6937 28.4245 15.8793 29.2388 14.8782 29.2388Z" fill="white" fill-opacity="0.5"/>
<path d="M35.7748 23.4105C35.7677 23.4034 35.7605 23.3965 35.7533 23.3896L32.0085 19.8559C34.1047 18.2708 35.0517 15.4652 34.1905 12.8697C30.1306 0.62104 14.5298 -3.26489 5.23396 5.89051C-1.72814 12.7474 -1.66318 23.8035 4.94239 30.6119C10.8766 36.7283 20.2272 37.5873 27.1285 33.0697C30.3604 30.9549 28.8746 25.9208 25.0072 25.9208C22.1189 25.9208 21.6335 21.8824 24.3619 21.1909L30.9593 28.1828C30.9662 28.1901 30.9731 28.1973 30.9803 28.2044C32.3028 29.53 34.4511 29.5335 35.7771 28.2074C37.103 26.8816 37.103 24.7356 35.7748 23.4105ZM21.8017 26.8068C22.6705 27.6302 23.8089 28.0836 25.0073 28.0836C26.7346 28.0836 27.3858 30.3167 25.9441 31.2601C19.9039 35.2141 11.7003 34.4713 6.49471 29.1059C0.656155 23.0881 0.690546 13.4307 6.77562 7.44521C14.9297 -0.575395 28.5679 2.78016 32.1376 13.5505C32.7425 15.3734 31.9867 17.3542 30.4013 18.3393L24.3943 12.6708C24.758 10.9247 24.2543 9.08391 22.9346 7.76426C21.2782 6.10782 16.0601 5.2822 13.7986 5.03655C13.1127 4.96185 12.532 5.54169 12.6066 6.22859C12.8543 8.49882 13.6751 13.7051 15.3344 15.3645C16.655 16.685 18.4967 17.1877 20.2415 16.824L22.7718 19.5056C20.0774 20.9683 19.5303 24.6543 21.8017 26.8068ZM16.8637 13.8351C16.0488 13.0202 15.3206 9.92064 14.9362 7.36605C17.4908 7.75041 20.5904 8.47863 21.4052 9.29358C22.6601 10.5484 22.6603 12.5799 21.4052 13.8351C20.1532 15.0873 18.1213 15.0927 16.8637 13.8351ZM34.2479 26.6781C33.7713 27.1547 33 27.1569 32.5206 26.6858C31.967 26.0991 22.839 16.4253 22.3304 15.8864C22.7571 15.5695 23.1395 15.1871 23.4568 14.76L34.2563 24.9509C34.7278 25.4308 34.7252 26.2007 34.2479 26.6781Z" fill="white" fill-opacity="0.5"/>
</g>
<defs>
<clipPath id="clip0_0_1492">
<rect width="36.7713" height="36.7713" fill="white"/>
</clipPath>
</defs>
</svg>
