<svg xmlns="http://www.w3.org/2000/svg" width="27" height="27" viewBox="0 0 27 27" fill="none"><g clip-path="url(#clip0_0_691)"><path d="M13.5005 27.001C20.9566 27.001 27.001 20.9566 27.001 13.5005C27.001 6.04438 20.9566 0 13.5005 0C6.04438 0 0 6.04438 0 13.5005C0 20.9566 6.04438 27.001 13.5005 27.001Z" fill="#16DEA8"/><path d="M10.9629 20.6436L17.709 26.3281C20.4108 25.4398 22.7632 23.7213 24.4309 21.4176C26.0987 19.1139 26.9967 16.3425 26.9969 13.4984C26.9969 13.1579 26.9836 12.8204 26.959 12.4861L19.6261 6.37073L10.9629 20.6436Z" fill="#0BA47A"/><path d="M11.9466 20.9011C11.699 20.9015 11.4538 20.8531 11.2249 20.7586C10.9961 20.664 10.7882 20.5253 10.6131 20.3503L7.01286 16.752C6.66028 16.3993 6.46222 15.9209 6.46222 15.4222C6.46222 14.9234 6.66028 14.4451 7.01286 14.0923C7.36562 13.7398 7.84395 13.5417 8.3427 13.5417C8.84145 13.5417 9.31979 13.7398 9.67255 14.0923L11.5783 15.9961L17.0454 7.00155C17.3045 6.57537 17.7222 6.26951 18.2067 6.15122C18.6912 6.03293 19.2029 6.11188 19.6292 6.37073C19.8404 6.499 20.0242 6.66764 20.1702 6.867C20.3161 7.06636 20.4214 7.29254 20.4799 7.5326C20.5383 7.77266 20.5489 8.02189 20.511 8.26605C20.4732 8.51021 20.3875 8.74451 20.259 8.95554L13.5539 19.9954C13.4061 20.2388 13.2049 20.4456 12.9656 20.6C12.7262 20.7544 12.455 20.8524 12.1722 20.8867C12.0974 20.896 12.022 20.9008 11.9466 20.9011Z" fill="white"/></g><defs><clipPath id="clip0_0_691"><rect width="27" height="27" fill="white"/></clipPath></defs></svg>