 <svg
          width="171"
          height="487"
          viewBox="0 0 171 487"
          fill="none"
          xmlns="http://www.w3.org/2000/svg"
        >
          <g filter="url(#filter0_i_0_1413)">
            <path
              d="M279.421 87.9223C298.184 132.124 293.639 179.71 271.829 217.882C269.37 222.022 266.606 226.271 263.94 230.314C262.455 232.39 261.067 234.259 259.376 236.237C257.988 238.106 256.395 239.878 255.213 241.845C243.792 260.687 240.554 284.655 248.714 306.937C252.201 316.662 257.293 325.125 263.784 332.229C268.601 337.532 274.622 341.89 280.631 345.737C282.391 346.821 284.152 347.904 285.815 349.194C292.77 354.246 298.934 360.438 304.004 367.881C308.333 374.216 311.969 381.487 314.194 389.606C325.142 426.836 305.321 467.209 269.083 481.403C228.895 497.012 184.015 476.578 169.729 436.258C167.55 430.18 166.076 423.678 165.428 417.566C164.613 408.598 165.439 399.899 167.6 391.579C168.064 389.527 168.735 387.571 169.406 385.616C171.906 378.718 173.689 371.734 173.832 364.481C174.33 354.87 172.885 345.1 169.398 335.375C160.899 311.672 141.833 294.843 119.522 288.096C116.024 286.949 112.538 286.313 108.748 285.785C104.023 284.564 99.1892 283.039 94.7568 281.199C56.1381 266.751 24.1986 236.019 9.06487 194.288C-18.7196 116.795 23.5642 30.9846 103.276 6.51997C173.957 -15.3926 250.53 20.2575 279.421 87.9223Z"
              fill="url(#paint0_radial_0_1413)"
            />
            <path
              d="M279.421 87.9223C298.184 132.124 293.639 179.71 271.829 217.882C269.37 222.022 266.606 226.271 263.94 230.314C262.455 232.39 261.067 234.259 259.376 236.237C257.988 238.106 256.395 239.878 255.213 241.845C243.792 260.687 240.554 284.655 248.714 306.937C252.201 316.662 257.293 325.125 263.784 332.229C268.601 337.532 274.622 341.89 280.631 345.737C282.391 346.821 284.152 347.904 285.815 349.194C292.77 354.246 298.934 360.438 304.004 367.881C308.333 374.216 311.969 381.487 314.194 389.606C325.142 426.836 305.321 467.209 269.083 481.403C228.895 497.012 184.015 476.578 169.729 436.258C167.55 430.18 166.076 423.678 165.428 417.566C164.613 408.598 165.439 399.899 167.6 391.579C168.064 389.527 168.735 387.571 169.406 385.616C171.906 378.718 173.689 371.734 173.832 364.481C174.33 354.87 172.885 345.1 169.398 335.375C160.899 311.672 141.833 294.843 119.522 288.096C116.024 286.949 112.538 286.313 108.748 285.785C104.023 284.564 99.1892 283.039 94.7568 281.199C56.1381 266.751 24.1986 236.019 9.06487 194.288C-18.7196 116.795 23.5642 30.9846 103.276 6.51997C173.957 -15.3926 250.53 20.2575 279.421 87.9223Z"
              fill="#1F2E7E"
              fill-opacity="0.2"
            />
          </g>
          <defs>
            <filter
              id="filter0_i_0_1413"
              x="0.527954"
              y="0.0754395"
              width="316.674"
              height="563.375"
              filterUnits="userSpaceOnUse"
              color-interpolation-filters="sRGB"
            >
              <feFlood flood-opacity="0" result="BackgroundImageFix" />
              <feBlend
                mode="normal"
                in="SourceGraphic"
                in2="BackgroundImageFix"
                result="shape"
              />
              <feColorMatrix
                in="SourceAlpha"
                type="matrix"
                values="0 0 0 0 0 0 0 0 0 0 0 0 0 0 0 0 0 0 127 0"
                result="hardAlpha"
              />
              <feOffset dy="76.8" />
              <feGaussianBlur stdDeviation="62.3954" />
              <feComposite
                in2="hardAlpha"
                operator="arithmetic"
                k2="-1"
                k3="1"
              />
              <feColorMatrix
                type="matrix"
                values="0 0 0 0 1 0 0 0 0 1 0 0 0 0 1 0 0 0 0.8 0"
              />
              <feBlend
                mode="lighten"
                in2="shape"
                result="effect1_innerShadow_0_1413"
              />
            </filter>
            <radialGradient
              id="paint0_radial_0_1413"
              cx="0"
              cy="0"
              r="1"
              gradientUnits="userSpaceOnUse"
              gradientTransform="translate(425.402 274.291) rotate(-157.532) scale(150.569 414.091)"
            >
              <stop stop-color="#9000F2" />
              <stop offset="0.401042" stop-color="#16DEA8" />
              <stop offset="0.848958" stop-color="#9000F2" />
            </radialGradient>
          </defs>
        </svg>
      