<svg xmlns="http://www.w3.org/2000/svg" width="968" height="504" viewBox="0 0 968 504" fill="none"><mask id="mask0_0_735" maskUnits="userSpaceOnUse" x="39" y="-1" width="620" height="276" style="mask-type: alpha;"><path d="M658.138 -0.000149114L658.138 274.337L176.44 274.337C101.007 274.337 39.459 212.79 39.459 137.356C39.459 61.5475 101.007 0.37515 176.44 0.375147L658.138 0.375126L658.138 -0.000149114Z" fill="url(#paint0_linear_0_735)"/></mask><g mask="url(#mask0_0_735)"><g filter="url(#filter0_ii_0_735)"><path d="M658.138 -0.000149114L658.138 274.337L176.44 274.337C101.007 274.337 39.459 212.79 39.459 137.356C39.459 61.5475 101.007 0.37515 176.44 0.375147L658.138 0.375126L658.138 -0.000149114Z" fill="url(#paint1_linear_0_735)"/><path d="M658.138 -0.000149114L658.138 274.337L176.44 274.337C101.007 274.337 39.459 212.79 39.459 137.356C39.459 61.5475 101.007 0.37515 176.44 0.375147L658.138 0.375126L658.138 -0.000149114Z" fill="#9000F2"/></g></g><mask id="mask1_0_735" maskUnits="userSpaceOnUse" x="348" y="229" width="620" height="275" style="mask-type: alpha;"><path d="M348.798 503.638L348.798 229.3L830.497 229.3C905.93 229.3 967.478 290.848 967.478 366.281C967.478 442.09 905.93 503.263 830.497 503.263L348.798 503.263L348.798 503.638Z" fill="url(#paint2_linear_0_735)"/></mask><g mask="url(#mask1_0_735)"><g filter="url(#filter1_ii_0_735)"><path d="M348.798 503.638L348.798 229.3L830.497 229.3C905.93 229.3 967.478 290.848 967.478 366.281C967.478 442.09 905.93 503.263 830.497 503.263L348.798 503.263L348.798 503.638Z" fill="url(#paint3_linear_0_735)"/><path d="M348.798 503.638L348.798 229.3L830.497 229.3C905.93 229.3 967.478 290.848 967.478 366.281C967.478 442.09 905.93 503.263 830.497 503.263L348.798 503.263L348.798 503.638Z" fill="#16DEA8"/></g></g><path d="M68.6625 314.531C65.1692 315.638 61.4492 316.235 57.5895 316.235C37.3614 316.235 20.9636 299.837 20.9636 279.609C20.9636 277.579 21.1288 275.587 21.4464 273.647H44.2033C43.391 275.468 42.9393 277.486 42.9393 279.609C42.9393 287.7 49.4983 294.26 57.5895 294.26C62.0118 294.26 65.9762 292.3 68.6625 289.202V314.531Z" fill="#000080"/><path d="M4.11496 341.788C5.80977 326.456 18.8081 314.531 34.5915 314.531C50.3747 314.531 63.373 326.456 65.0678 341.788H43.1388C41.785 338.394 38.4682 335.996 34.5915 335.996C30.7145 335.996 27.3979 338.394 26.0439 341.788H4.11496Z" fill="#CE02C6"/><path d="M903.664 148.18V180.754C913.239 182.671 920.37 191.383 920.37 201.693C920.37 212.003 913.239 220.715 903.664 222.632V255.206C903.664 255.206 903.664 255.206 903.664 255.206V222.632C913.239 220.715 920.37 212.003 920.37 201.693C920.37 191.383 913.239 182.671 903.664 180.754V148.18C903.664 148.18 903.664 148.18 903.664 148.18Z" fill="#F5A302"/><path d="M948.933 201.693C948.933 227.838 930.159 249.183 906.136 252.455V224.564C915.879 221.672 922.843 212.425 922.843 201.693C922.843 190.962 915.88 181.714 906.136 178.823V150.931C930.159 154.203 948.933 175.548 948.933 201.693Z" fill="#F5A302"/><path d="M621.361 92.4441L610.277 132.12H600.897L593.451 103.869L585.664 132.12L576.341 132.177L565.655 92.4441H574.181L581.173 123.253L589.245 92.4441H598.112L605.729 123.082L612.778 92.4441H621.361ZM633.378 98.8673V108.815H646.736V115.124H633.378V125.64H648.442V132.12H625.42V92.3872H648.442V98.8673H633.378ZM695.877 104.722C695.877 106.844 695.366 108.834 694.343 110.691C693.357 112.547 691.785 114.044 689.625 115.181C687.503 116.318 684.812 116.886 681.553 116.886H674.902V132.12H666.944V92.4441H681.553C684.623 92.4441 687.237 92.9746 689.397 94.0357C691.557 95.0967 693.168 96.5557 694.229 98.4126C695.328 100.269 695.877 102.373 695.877 104.722ZM681.212 110.463C683.41 110.463 685.039 109.971 686.1 108.985C687.162 107.962 687.692 106.541 687.692 104.722C687.692 100.857 685.532 98.9241 681.212 98.9241H674.902V110.463H681.212ZM720.854 132.12L712.1 116.659H708.349V132.12H700.391V92.4441H715.283C718.353 92.4441 720.968 92.9935 723.128 94.0925C725.288 95.1536 726.898 96.6125 727.959 98.4694C729.058 100.288 729.608 102.335 729.608 104.608C729.608 107.223 728.85 109.592 727.334 111.714C725.818 113.798 723.564 115.238 720.57 116.034L730.063 132.12H720.854ZM708.349 110.691H714.999C717.159 110.691 718.77 110.179 719.831 109.156C720.892 108.095 721.423 106.636 721.423 104.779C721.423 102.96 720.892 101.558 719.831 100.573C718.77 99.5494 717.159 99.0378 714.999 99.0378H708.349V110.691ZM754.086 132.518C750.372 132.518 746.962 131.647 743.854 129.903C740.747 128.16 738.284 125.754 736.465 122.684C734.646 119.577 733.736 116.072 733.736 112.169C733.736 108.303 734.646 104.836 736.465 101.766C738.284 98.6589 740.747 96.2336 743.854 94.4904C746.962 92.7472 750.372 91.8756 754.086 91.8756C757.837 91.8756 761.248 92.7472 764.318 94.4904C767.425 96.2336 769.869 98.6589 771.65 101.766C773.469 104.836 774.379 108.303 774.379 112.169C774.379 116.072 773.469 119.577 771.65 122.684C769.869 125.754 767.425 128.16 764.318 129.903C761.21 131.647 757.8 132.518 754.086 132.518ZM754.086 125.413C756.473 125.413 758.576 124.882 760.395 123.821C762.214 122.722 763.635 121.169 764.659 119.16C765.682 117.152 766.193 114.821 766.193 112.169C766.193 109.516 765.682 107.204 764.659 105.234C763.635 103.225 762.214 101.69 760.395 100.629C758.576 99.5684 756.473 99.0378 754.086 99.0378C751.698 99.0378 749.576 99.5684 747.719 100.629C745.9 101.69 744.479 103.225 743.456 105.234C742.433 107.204 741.921 109.516 741.921 112.169C741.921 114.821 742.433 117.152 743.456 119.16C744.479 121.169 745.9 122.722 747.719 123.821C749.576 124.882 751.698 125.413 754.086 125.413ZM814.803 92.4441L800.251 132.12H790.588L776.036 92.4441H784.562L795.476 123.992L806.333 92.4441H814.803ZM826.395 92.4441V132.12H818.437V92.4441H826.395ZM846.991 92.4441C851.159 92.4441 854.816 93.2588 857.961 94.8883C861.144 96.5178 863.589 98.8483 865.294 101.88C867.037 104.874 867.909 108.36 867.909 112.339C867.909 116.318 867.037 119.804 865.294 122.798C863.589 125.754 861.144 128.047 857.961 129.676C854.816 131.306 851.159 132.12 846.991 132.12H833.121V92.4441H846.991ZM846.706 125.356C850.875 125.356 854.096 124.219 856.37 121.945C858.643 119.672 859.78 116.47 859.78 112.339C859.78 108.208 858.643 104.987 856.37 102.676C854.096 100.326 850.875 99.1515 846.706 99.1515H841.079V125.356H846.706ZM880.687 98.8673V108.815H894.045V115.124H880.687V125.64H895.75V132.12H872.729V92.3872H895.75V98.8673H880.687Z" fill="white"/><path d="M152.588 238.902H119.289L114.35 254H81.4741L118.019 154.102H154.14L190.544 254H157.526L152.588 238.902ZM144.969 215.339L135.938 187.542L126.908 215.339H144.969ZM226.162 230.295H256.357V254H194.838V154.102H226.162V230.295ZM294.716 230.295H324.911V254H263.392V154.102H294.716V230.295ZM394.725 154.102C405.166 154.102 414.29 156.218 422.098 160.451C429.999 164.684 436.066 170.563 440.299 178.089C444.532 185.614 446.649 194.174 446.649 203.769C446.649 213.269 444.532 221.829 440.299 229.449C436.066 237.068 429.999 243.088 422.098 247.509C414.29 251.836 405.166 254 394.725 254H353.1V154.102H394.725ZM391.903 226.062C398.957 226.062 404.554 224.134 408.693 220.277C412.832 216.42 414.902 210.918 414.902 203.769C414.902 196.62 412.832 191.117 408.693 187.26C404.554 183.403 398.957 181.475 391.903 181.475H384.424V226.062H391.903ZM486.462 154.102V254H455.138V154.102H486.462ZM559.024 188.248C557.801 186.272 556.061 184.767 553.803 183.733C551.546 182.604 548.818 182.039 545.62 182.039C539.6 182.039 534.943 184.015 531.651 187.966C528.359 191.822 526.712 197.137 526.712 203.91C526.712 211.717 528.547 217.549 532.215 221.406C535.884 225.263 541.528 227.191 549.147 227.191C556.39 227.191 562.222 224.275 566.643 218.443H541.669V196.29H592.606V227.614C588.279 235.045 582.305 241.442 574.686 246.804C567.067 252.071 557.425 254.705 545.761 254.705C535.414 254.705 526.383 252.589 518.67 248.356C511.051 244.029 505.171 238.009 501.033 230.295C496.988 222.582 494.965 213.787 494.965 203.91C494.965 194.033 496.988 185.238 501.033 177.524C505.171 169.811 511.051 163.838 518.67 159.605C526.289 155.278 535.225 153.114 545.479 153.114C558.554 153.114 569.183 156.265 577.367 162.568C585.645 168.87 590.536 177.43 592.041 188.248H559.024ZM632.389 154.102V254H601.065V154.102H632.389ZM722.165 154.102V178.935H695.639V254H664.315V178.935H638.07V154.102H722.165ZM791.898 238.902H758.598L753.66 254H720.784L757.329 154.102H793.45L829.853 254H796.836L791.898 238.902ZM784.278 215.339L775.248 187.542L766.218 215.339H784.278ZM865.472 230.295H895.667V254H834.148V154.102H865.472V230.295Z" fill="white"/><path d="M109.851 345.229C104.664 345.229 100.016 344.387 95.9068 342.703C91.7977 341.019 88.497 338.526 86.0046 335.226C83.5796 331.925 82.2997 327.95 82.165 323.303H100.555C100.824 325.93 101.734 327.95 103.283 329.365C104.832 330.712 106.853 331.386 109.345 331.386C111.905 331.386 113.926 330.813 115.408 329.668C116.89 328.456 117.631 326.805 117.631 324.717C117.631 322.966 117.025 321.517 115.812 320.372C114.667 319.227 113.219 318.284 111.467 317.543C109.783 316.802 107.358 315.96 104.192 315.017C99.6117 313.602 95.8731 312.188 92.9766 310.773C90.08 309.359 87.5876 307.27 85.4994 304.509C83.4112 301.747 82.3671 298.143 82.3671 293.697C82.3671 287.096 84.7584 281.942 89.5411 278.237C94.3238 274.465 100.555 272.579 108.234 272.579C116.048 272.579 122.346 274.465 127.129 278.237C131.912 281.942 134.471 287.129 134.808 293.798H116.115C115.981 291.508 115.139 289.723 113.589 288.443C112.04 287.096 110.053 286.422 107.628 286.422C105.54 286.422 103.856 286.994 102.576 288.14C101.296 289.217 100.656 290.8 100.656 292.889C100.656 295.179 101.734 296.964 103.889 298.244C106.045 299.524 109.413 300.905 113.993 302.387C118.574 303.936 122.279 305.418 125.108 306.833C128.005 308.247 130.497 310.302 132.585 312.996C134.674 315.691 135.718 319.16 135.718 323.404C135.718 327.445 134.674 331.116 132.585 334.417C130.564 337.718 127.601 340.345 123.694 342.299C119.787 344.252 115.172 345.229 109.851 345.229ZM161.608 287.432V301.78H184.747V315.118H161.608V330.679H187.778V344.521H144.33V273.589H187.778V287.432H161.608ZM233.148 344.521L218.396 317.745H214.253V344.521H196.975V273.589H225.974C231.565 273.589 236.314 274.566 240.221 276.52C244.195 278.473 247.159 281.168 249.113 284.603C251.066 287.971 252.043 291.744 252.043 295.92C252.043 300.635 250.696 304.845 248.001 308.55C245.374 312.255 241.467 314.882 236.28 316.432L252.649 344.521H233.148ZM214.253 305.519H224.964C228.13 305.519 230.487 304.744 232.037 303.195C233.653 301.646 234.462 299.456 234.462 296.627C234.462 293.933 233.653 291.811 232.037 290.262C230.487 288.712 228.13 287.938 224.964 287.938H214.253V305.519ZM327.456 273.589L302.296 344.521H280.673L255.513 273.589H273.903L291.484 327.142L309.167 273.589H327.456ZM349.935 273.589V344.521H332.656V273.589H349.935ZM357.505 308.954C357.505 301.949 359.02 295.718 362.052 290.262C365.083 284.738 369.293 280.46 374.682 277.429C380.138 274.33 386.302 272.781 393.173 272.781C401.593 272.781 408.801 275.004 414.796 279.45C420.791 283.896 424.799 289.958 426.82 297.638H407.824C406.409 294.674 404.389 292.417 401.762 290.868C399.202 289.318 396.272 288.544 392.971 288.544C387.649 288.544 383.338 290.396 380.037 294.101C376.737 297.806 375.086 302.757 375.086 308.954C375.086 315.152 376.737 320.103 380.037 323.808C383.338 327.513 387.649 329.365 392.971 329.365C396.272 329.365 399.202 328.59 401.762 327.041C404.389 325.492 406.409 323.235 407.824 320.271H426.82C424.799 327.95 420.791 334.013 414.796 338.459C408.801 342.837 401.593 345.027 393.173 345.027C386.302 345.027 380.138 343.511 374.682 340.48C369.293 337.381 365.083 333.104 362.052 327.647C359.02 322.191 357.505 315.96 357.505 308.954ZM452.659 287.432V301.78H475.797V315.118H452.659V330.679H478.829V344.521H435.38V273.589H478.829V287.432H452.659ZM513.69 345.229C508.503 345.229 503.855 344.387 499.746 342.703C495.637 341.019 492.336 338.526 489.844 335.226C487.419 331.925 486.139 327.95 486.004 323.303H504.394C504.664 325.93 505.573 327.95 507.122 329.365C508.672 330.712 510.692 331.386 513.185 331.386C515.745 331.386 517.765 330.813 519.247 329.668C520.729 328.456 521.47 326.805 521.47 324.717C521.47 322.966 520.864 321.517 519.652 320.372C518.506 319.227 517.058 318.284 515.307 317.543C513.623 316.802 511.198 315.96 508.032 315.017C503.451 313.602 499.712 312.188 496.816 310.773C493.919 309.359 491.427 307.27 489.339 304.509C487.251 301.747 486.206 298.143 486.206 293.697C486.206 287.096 488.598 281.942 493.38 278.237C498.163 274.465 504.394 272.579 512.073 272.579C519.887 272.579 526.186 274.465 530.968 278.237C535.751 281.942 538.311 287.129 538.648 293.798H519.955C519.82 291.508 518.978 289.723 517.429 288.443C515.879 287.096 513.892 286.422 511.467 286.422C509.379 286.422 507.695 286.994 506.415 288.14C505.135 289.217 504.495 290.8 504.495 292.889C504.495 295.179 505.573 296.964 507.729 298.244C509.884 299.524 513.252 300.905 517.833 302.387C522.413 303.936 526.118 305.418 528.947 306.833C531.844 308.247 534.336 310.302 536.425 312.996C538.513 315.691 539.557 319.16 539.557 323.404C539.557 327.445 538.513 331.116 536.425 334.417C534.404 337.718 531.44 340.345 527.533 342.299C523.626 344.252 519.012 345.229 513.69 345.229Z" fill="white"/><path d="M126.222 124.901C127.808 124.901 129.2 125.211 130.397 125.831C131.608 126.451 132.538 127.338 133.187 128.491C133.851 129.631 134.182 130.958 134.182 132.472C134.182 133.986 133.851 135.313 133.187 136.452C132.538 137.577 131.608 138.449 130.397 139.07C129.2 139.69 127.808 140 126.222 140H120.943V124.901H126.222ZM126.113 137.426C127.7 137.426 128.926 136.993 129.791 136.128C130.656 135.262 131.089 134.044 131.089 132.472C131.089 130.9 130.656 129.674 129.791 128.794C128.926 127.9 127.7 127.453 126.113 127.453H123.972V137.426H126.113ZM137.985 126.588C137.452 126.588 137.004 126.422 136.644 126.09C136.298 125.744 136.125 125.319 136.125 124.814C136.125 124.309 136.298 123.891 136.644 123.559C137.004 123.213 137.452 123.04 137.985 123.04C138.519 123.04 138.959 123.213 139.305 123.559C139.665 123.891 139.845 124.309 139.845 124.814C139.845 125.319 139.665 125.744 139.305 126.09C138.959 126.422 138.519 126.588 137.985 126.588ZM139.478 128.016V140H136.449V128.016H139.478ZM147.164 127.821C148.058 127.821 148.844 128.001 149.522 128.362C150.2 128.708 150.733 129.162 151.123 129.724V128.016H154.173V140.086C154.173 141.197 153.949 142.185 153.502 143.05C153.055 143.93 152.385 144.622 151.491 145.127C150.596 145.646 149.515 145.905 148.246 145.905C146.544 145.905 145.145 145.509 144.049 144.716C142.967 143.922 142.355 142.841 142.21 141.471H145.217C145.376 142.019 145.715 142.451 146.234 142.769C146.767 143.1 147.409 143.266 148.159 143.266C149.039 143.266 149.753 142.999 150.301 142.466C150.849 141.947 151.123 141.153 151.123 140.086V138.226C150.733 138.788 150.193 139.257 149.5 139.632C148.823 140.007 148.044 140.194 147.164 140.194C146.155 140.194 145.232 139.935 144.395 139.416C143.559 138.897 142.895 138.168 142.405 137.231C141.929 136.279 141.691 135.19 141.691 133.964C141.691 132.753 141.929 131.679 142.405 130.741C142.895 129.804 143.552 129.083 144.374 128.578C145.21 128.073 146.14 127.821 147.164 127.821ZM151.123 134.008C151.123 133.272 150.979 132.645 150.69 132.126C150.402 131.592 150.012 131.188 149.522 130.914C149.032 130.626 148.505 130.482 147.943 130.482C147.38 130.482 146.861 130.619 146.385 130.893C145.909 131.167 145.52 131.57 145.217 132.104C144.929 132.623 144.785 133.243 144.785 133.964C144.785 134.685 144.929 135.32 145.217 135.868C145.52 136.402 145.909 136.813 146.385 137.101C146.876 137.389 147.395 137.534 147.943 137.534C148.505 137.534 149.032 137.397 149.522 137.123C150.012 136.834 150.402 136.43 150.69 135.911C150.979 135.378 151.123 134.743 151.123 134.008ZM158.667 126.588C158.133 126.588 157.686 126.422 157.325 126.09C156.979 125.744 156.806 125.319 156.806 124.814C156.806 124.309 156.979 123.891 157.325 123.559C157.686 123.213 158.133 123.04 158.667 123.04C159.2 123.04 159.64 123.213 159.986 123.559C160.347 123.891 160.527 124.309 160.527 124.814C160.527 125.319 160.347 125.744 159.986 126.09C159.64 126.422 159.2 126.588 158.667 126.588ZM160.159 128.016V140H157.131V128.016H160.159ZM166.677 130.503V136.301C166.677 136.704 166.771 137 166.959 137.188C167.161 137.361 167.492 137.447 167.954 137.447H169.36V140H167.456C164.904 140 163.627 138.76 163.627 136.279V130.503H162.2V128.016H163.627V125.052H166.677V128.016H169.36V130.503H166.677ZM170.759 133.964C170.759 132.753 170.997 131.679 171.473 130.741C171.964 129.804 172.62 129.083 173.442 128.578C174.278 128.073 175.208 127.821 176.232 127.821C177.126 127.821 177.905 128.001 178.569 128.362C179.246 128.722 179.787 129.176 180.191 129.724V128.016H183.241V140H180.191V138.248C179.802 138.81 179.261 139.279 178.569 139.654C177.891 140.014 177.105 140.194 176.211 140.194C175.201 140.194 174.278 139.935 173.442 139.416C172.62 138.897 171.964 138.168 171.473 137.231C170.997 136.279 170.759 135.19 170.759 133.964ZM180.191 134.008C180.191 133.272 180.047 132.645 179.758 132.126C179.47 131.592 179.081 131.188 178.59 130.914C178.1 130.626 177.573 130.482 177.011 130.482C176.449 130.482 175.929 130.619 175.454 130.893C174.978 131.167 174.588 131.57 174.285 132.104C173.997 132.623 173.853 133.243 173.853 133.964C173.853 134.685 173.997 135.32 174.285 135.868C174.588 136.402 174.978 136.813 175.454 137.101C175.944 137.389 176.463 137.534 177.011 137.534C177.573 137.534 178.1 137.397 178.59 137.123C179.081 136.834 179.47 136.43 179.758 135.911C180.047 135.378 180.191 134.743 180.191 134.008ZM189.227 123.992V140H186.199V123.992H189.227ZM212.257 127.842C213.728 127.842 214.911 128.297 215.805 129.205C216.713 130.099 217.168 131.354 217.168 132.969V140H214.139V133.38C214.139 132.443 213.901 131.729 213.425 131.239C212.949 130.734 212.3 130.482 211.478 130.482C210.656 130.482 210 130.734 209.51 131.239C209.034 131.729 208.796 132.443 208.796 133.38V140H205.767V133.38C205.767 132.443 205.53 131.729 205.054 131.239C204.578 130.734 203.929 130.482 203.107 130.482C202.27 130.482 201.607 130.734 201.117 131.239C200.641 131.729 200.403 132.443 200.403 133.38V140H197.374V128.016H200.403V129.465C200.792 128.96 201.29 128.564 201.895 128.275C202.515 127.987 203.193 127.842 203.929 127.842C204.866 127.842 205.703 128.044 206.438 128.448C207.174 128.838 207.743 129.4 208.147 130.135C208.536 129.443 209.099 128.888 209.834 128.47C210.584 128.052 211.392 127.842 212.257 127.842ZM219.263 133.964C219.263 132.753 219.501 131.679 219.977 130.741C220.467 129.804 221.123 129.083 221.945 128.578C222.782 128.073 223.712 127.821 224.736 127.821C225.63 127.821 226.409 128.001 227.072 128.362C227.75 128.722 228.291 129.176 228.694 129.724V128.016H231.744V140H228.694V138.248C228.305 138.81 227.764 139.279 227.072 139.654C226.394 140.014 225.608 140.194 224.714 140.194C223.705 140.194 222.782 139.935 221.945 139.416C221.123 138.897 220.467 138.168 219.977 137.231C219.501 136.279 219.263 135.19 219.263 133.964ZM228.694 134.008C228.694 133.272 228.55 132.645 228.262 132.126C227.973 131.592 227.584 131.188 227.094 130.914C226.603 130.626 226.077 130.482 225.514 130.482C224.952 130.482 224.433 130.619 223.957 130.893C223.481 131.167 223.092 131.57 222.789 132.104C222.5 132.623 222.356 133.243 222.356 133.964C222.356 134.685 222.5 135.32 222.789 135.868C223.092 136.402 223.481 136.813 223.957 137.101C224.447 137.389 224.966 137.534 225.514 137.534C226.077 137.534 226.603 137.397 227.094 137.123C227.584 136.834 227.973 136.43 228.262 135.911C228.55 135.378 228.694 134.743 228.694 134.008ZM237.731 129.876C238.12 129.241 238.625 128.744 239.245 128.383C239.88 128.023 240.601 127.842 241.408 127.842V131.022H240.608C239.656 131.022 238.935 131.246 238.445 131.693C237.969 132.14 237.731 132.919 237.731 134.029V140H234.702V128.016H237.731V129.876ZM250.544 140L246.477 134.895V140H243.448V123.992H246.477V133.099L250.5 128.016H254.437L249.159 134.029L254.481 140H250.544ZM267.222 133.748C267.222 134.181 267.193 134.57 267.135 134.916H258.374C258.446 135.781 258.749 136.459 259.283 136.95C259.816 137.44 260.472 137.685 261.251 137.685C262.376 137.685 263.176 137.202 263.652 136.236H266.919C266.573 137.389 265.909 138.341 264.929 139.091C263.948 139.827 262.744 140.194 261.316 140.194C260.162 140.194 259.124 139.942 258.201 139.437C257.292 138.918 256.579 138.19 256.059 137.252C255.555 136.315 255.302 135.233 255.302 134.008C255.302 132.767 255.555 131.679 256.059 130.741C256.564 129.804 257.271 129.083 258.179 128.578C259.088 128.073 260.133 127.821 261.316 127.821C262.455 127.821 263.472 128.066 264.366 128.556C265.275 129.047 265.974 129.746 266.464 130.655C266.969 131.549 267.222 132.58 267.222 133.748ZM264.085 132.883C264.071 132.104 263.789 131.484 263.241 131.022C262.693 130.546 262.023 130.309 261.229 130.309C260.48 130.309 259.845 130.539 259.326 131.001C258.821 131.448 258.511 132.075 258.396 132.883H264.085ZM272.958 130.503V136.301C272.958 136.704 273.052 137 273.239 137.188C273.441 137.361 273.773 137.447 274.234 137.447H275.641V140H273.737C271.184 140 269.908 138.76 269.908 136.279V130.503H268.48V128.016H269.908V125.052H272.958V128.016H275.641V130.503H272.958ZM279.355 126.588C278.821 126.588 278.374 126.422 278.014 126.09C277.667 125.744 277.494 125.319 277.494 124.814C277.494 124.309 277.667 123.891 278.014 123.559C278.374 123.213 278.821 123.04 279.355 123.04C279.888 123.04 280.328 123.213 280.674 123.559C281.035 123.891 281.215 124.309 281.215 124.814C281.215 125.319 281.035 125.744 280.674 126.09C280.328 126.422 279.888 126.588 279.355 126.588ZM280.847 128.016V140H277.819V128.016H280.847ZM290.481 127.842C291.908 127.842 293.062 128.297 293.942 129.205C294.821 130.099 295.261 131.354 295.261 132.969V140H292.233V133.38C292.233 132.428 291.995 131.7 291.519 131.195C291.043 130.676 290.394 130.417 289.572 130.417C288.736 130.417 288.072 130.676 287.582 131.195C287.106 131.7 286.868 132.428 286.868 133.38V140H283.839V128.016H286.868V129.508C287.272 128.989 287.784 128.585 288.404 128.297C289.038 127.994 289.731 127.842 290.481 127.842ZM302.835 127.821C303.73 127.821 304.516 128.001 305.193 128.362C305.871 128.708 306.405 129.162 306.794 129.724V128.016H309.844V140.086C309.844 141.197 309.621 142.185 309.174 143.05C308.727 143.93 308.056 144.622 307.162 145.127C306.268 145.646 305.186 145.905 303.917 145.905C302.215 145.905 300.816 145.509 299.72 144.716C298.639 143.922 298.026 142.841 297.882 141.471H300.889C301.047 142.019 301.386 142.451 301.905 142.769C302.439 143.1 303.081 143.266 303.83 143.266C304.71 143.266 305.424 142.999 305.972 142.466C306.52 141.947 306.794 141.153 306.794 140.086V138.226C306.405 138.788 305.864 139.257 305.172 139.632C304.494 140.007 303.715 140.194 302.835 140.194C301.826 140.194 300.903 139.935 300.066 139.416C299.23 138.897 298.567 138.168 298.076 137.231C297.6 136.279 297.362 135.19 297.362 133.964C297.362 132.753 297.6 131.679 298.076 130.741C298.567 129.804 299.223 129.083 300.045 128.578C300.881 128.073 301.811 127.821 302.835 127.821ZM306.794 134.008C306.794 133.272 306.65 132.645 306.361 132.126C306.073 131.592 305.684 131.188 305.193 130.914C304.703 130.626 304.177 130.482 303.614 130.482C303.052 130.482 302.533 130.619 302.057 130.893C301.581 131.167 301.191 131.57 300.889 132.104C300.6 132.623 300.456 133.243 300.456 133.964C300.456 134.685 300.6 135.32 300.889 135.868C301.191 136.402 301.581 136.813 302.057 137.101C302.547 137.389 303.066 137.534 303.614 137.534C304.177 137.534 304.703 137.397 305.193 137.123C305.684 136.834 306.073 136.43 306.361 135.911C306.65 135.378 306.794 134.743 306.794 134.008ZM317.178 133.964C317.178 132.753 317.416 131.679 317.892 130.741C318.382 129.804 319.038 129.083 319.86 128.578C320.697 128.073 321.627 127.821 322.651 127.821C323.545 127.821 324.324 128.001 324.987 128.362C325.665 128.722 326.206 129.176 326.609 129.724V128.016H329.66V140H326.609V138.248C326.22 138.81 325.679 139.279 324.987 139.654C324.309 140.014 323.523 140.194 322.629 140.194C321.62 140.194 320.697 139.935 319.86 139.416C319.038 138.897 318.382 138.168 317.892 137.231C317.416 136.279 317.178 135.19 317.178 133.964ZM326.609 134.008C326.609 133.272 326.465 132.645 326.177 132.126C325.888 131.592 325.499 131.188 325.009 130.914C324.518 130.626 323.992 130.482 323.43 130.482C322.867 130.482 322.348 130.619 321.872 130.893C321.396 131.167 321.007 131.57 320.704 132.104C320.415 132.623 320.271 133.243 320.271 133.964C320.271 134.685 320.415 135.32 320.704 135.868C321.007 136.402 321.396 136.813 321.872 137.101C322.362 137.389 322.882 137.534 323.43 137.534C323.992 137.534 324.518 137.397 325.009 137.123C325.499 136.834 325.888 136.43 326.177 135.911C326.465 135.378 326.609 134.743 326.609 134.008ZM337.312 127.821C338.206 127.821 338.992 128.001 339.67 128.362C340.347 128.708 340.881 129.162 341.27 129.724V128.016H344.321V140.086C344.321 141.197 344.097 142.185 343.65 143.05C343.203 143.93 342.532 144.622 341.638 145.127C340.744 145.646 339.662 145.905 338.393 145.905C336.692 145.905 335.293 145.509 334.197 144.716C333.115 143.922 332.502 142.841 332.358 141.471H335.365C335.523 142.019 335.862 142.451 336.381 142.769C336.915 143.1 337.557 143.266 338.307 143.266C339.186 143.266 339.9 142.999 340.448 142.466C340.996 141.947 341.27 141.153 341.27 140.086V138.226C340.881 138.788 340.34 139.257 339.648 139.632C338.97 140.007 338.191 140.194 337.312 140.194C336.302 140.194 335.379 139.935 334.543 139.416C333.706 138.897 333.043 138.168 332.553 137.231C332.077 136.279 331.839 135.19 331.839 133.964C331.839 132.753 332.077 131.679 332.553 130.741C333.043 129.804 333.699 129.083 334.521 128.578C335.358 128.073 336.288 127.821 337.312 127.821ZM341.27 134.008C341.27 133.272 341.126 132.645 340.838 132.126C340.549 131.592 340.16 131.188 339.67 130.914C339.179 130.626 338.653 130.482 338.09 130.482C337.528 130.482 337.009 130.619 336.533 130.893C336.057 131.167 335.668 131.57 335.365 132.104C335.076 132.623 334.932 133.243 334.932 133.964C334.932 134.685 335.076 135.32 335.365 135.868C335.668 136.402 336.057 136.813 336.533 137.101C337.023 137.389 337.542 137.534 338.09 137.534C338.653 137.534 339.179 137.397 339.67 137.123C340.16 136.834 340.549 136.43 340.838 135.911C341.126 135.378 341.27 134.743 341.27 134.008ZM358.419 133.748C358.419 134.181 358.39 134.57 358.332 134.916H349.571C349.643 135.781 349.946 136.459 350.48 136.95C351.014 137.44 351.67 137.685 352.448 137.685C353.573 137.685 354.374 137.202 354.85 136.236H358.116C357.77 137.389 357.107 138.341 356.126 139.091C355.145 139.827 353.941 140.194 352.513 140.194C351.36 140.194 350.321 139.942 349.398 139.437C348.49 138.918 347.776 138.19 347.257 137.252C346.752 136.315 346.5 135.233 346.5 134.008C346.5 132.767 346.752 131.679 347.257 130.741C347.761 129.804 348.468 129.083 349.377 128.578C350.285 128.073 351.331 127.821 352.513 127.821C353.653 127.821 354.669 128.066 355.563 128.556C356.472 129.047 357.171 129.746 357.662 130.655C358.167 131.549 358.419 132.58 358.419 133.748ZM355.282 132.883C355.268 132.104 354.987 131.484 354.439 131.022C353.891 130.546 353.22 130.309 352.427 130.309C351.677 130.309 351.042 130.539 350.523 131.001C350.018 131.448 349.708 132.075 349.593 132.883H355.282ZM367.271 127.842C368.698 127.842 369.852 128.297 370.732 129.205C371.611 130.099 372.051 131.354 372.051 132.969V140H369.023V133.38C369.023 132.428 368.785 131.7 368.309 131.195C367.833 130.676 367.184 130.417 366.362 130.417C365.526 130.417 364.862 130.676 364.372 131.195C363.896 131.7 363.658 132.428 363.658 133.38V140H360.629V128.016H363.658V129.508C364.062 128.989 364.574 128.585 365.194 128.297C365.828 127.994 366.521 127.842 367.271 127.842ZM374.152 134.008C374.152 132.767 374.405 131.686 374.91 130.763C375.414 129.825 376.114 129.104 377.008 128.6C377.902 128.08 378.926 127.821 380.08 127.821C381.565 127.821 382.791 128.196 383.757 128.946C384.738 129.681 385.394 130.72 385.726 132.061H382.459C382.286 131.542 381.991 131.138 381.572 130.849C381.168 130.546 380.664 130.395 380.058 130.395C379.193 130.395 378.508 130.712 378.003 131.347C377.498 131.967 377.246 132.854 377.246 134.008C377.246 135.147 377.498 136.034 378.003 136.668C378.508 137.289 379.193 137.599 380.058 137.599C381.284 137.599 382.084 137.051 382.459 135.955H385.726C385.394 137.252 384.738 138.284 383.757 139.048C382.776 139.812 381.551 140.194 380.08 140.194C378.926 140.194 377.902 139.942 377.008 139.437C376.114 138.918 375.414 138.197 374.91 137.274C374.405 136.337 374.152 135.248 374.152 134.008ZM399.409 128.016L391.989 145.667H388.766L391.362 139.697L386.56 128.016H389.956L393.049 136.387L396.186 128.016H399.409Z" fill="#1BEFB6"/><defs><filter id="filter0_ii_0_735" x="39.459" y="-0.000244141" width="656.394" height="343.041" filterUnits="userSpaceOnUse" color-interpolation-filters="sRGB"><feFlood flood-opacity="0" result="BackgroundImageFix"/><feBlend mode="normal" in="SourceGraphic" in2="BackgroundImageFix" result="shape"/><feColorMatrix in="SourceAlpha" type="matrix" values="0 0 0 0 0 0 0 0 0 0 0 0 0 0 0 0 0 0 127 0" result="hardAlpha"/><feOffset dy="68.7037"/><feGaussianBlur stdDeviation="55.8176"/><feComposite in2="hardAlpha" operator="arithmetic" k2="-1" k3="1"/><feColorMatrix type="matrix" values="0 0 0 0 1 0 0 0 0 1 0 0 0 0 1 0 0 0 0.8 0"/><feBlend mode="lighten" in2="shape" result="effect1_innerShadow_0_735"/><feColorMatrix in="SourceAlpha" type="matrix" values="0 0 0 0 0 0 0 0 0 0 0 0 0 0 0 0 0 0 127 0" result="hardAlpha"/><feOffset dx="37.7146" dy="22.0002"/><feGaussianBlur stdDeviation="22.0002"/><feComposite in2="hardAlpha" operator="arithmetic" k2="-1" k3="1"/><feColorMatrix type="matrix" values="0 0 0 0 0.168627 0 0 0 0 0.180392 0 0 0 0 0.239216 0 0 0 0.9 0"/><feBlend mode="multiply" in2="effect1_innerShadow_0_735" result="effect2_innerShadow_0_735"/></filter><filter id="filter1_ii_0_735" x="348.798" y="229.3" width="656.394" height="343.041" filterUnits="userSpaceOnUse" color-interpolation-filters="sRGB"><feFlood flood-opacity="0" result="BackgroundImageFix"/><feBlend mode="normal" in="SourceGraphic" in2="BackgroundImageFix" result="shape"/><feColorMatrix in="SourceAlpha" type="matrix" values="0 0 0 0 0 0 0 0 0 0 0 0 0 0 0 0 0 0 127 0" result="hardAlpha"/><feOffset dy="68.7037"/><feGaussianBlur stdDeviation="55.8176"/><feComposite in2="hardAlpha" operator="arithmetic" k2="-1" k3="1"/><feColorMatrix type="matrix" values="0 0 0 0 1 0 0 0 0 1 0 0 0 0 1 0 0 0 0.8 0"/><feBlend mode="lighten" in2="shape" result="effect1_innerShadow_0_735"/><feColorMatrix in="SourceAlpha" type="matrix" values="0 0 0 0 0 0 0 0 0 0 0 0 0 0 0 0 0 0 127 0" result="hardAlpha"/><feOffset dx="37.7146" dy="22.0002"/><feGaussianBlur stdDeviation="22.0002"/><feComposite in2="hardAlpha" operator="arithmetic" k2="-1" k3="1"/><feColorMatrix type="matrix" values="0 0 0 0 0.168627 0 0 0 0 0.180392 0 0 0 0 0.239216 0 0 0 0.9 0"/><feBlend mode="multiply" in2="effect1_innerShadow_0_735" result="effect2_innerShadow_0_735"/></filter><linearGradient id="paint0_linear_0_735" x1="623.787" y1="-30.7262" x2="292.607" y2="151.03" gradientUnits="userSpaceOnUse"><stop offset="0.399445" stop-opacity="0"/><stop offset="1"/></linearGradient><linearGradient id="paint1_linear_0_735" x1="-229.404" y1="186.181" x2="2.41002" y2="-166.091" gradientUnits="userSpaceOnUse"><stop stop-color="#9000F2"/><stop offset="0.635171" stop-color="#1DC0C1"/><stop offset="1" stop-color="#16DEA8"/></linearGradient><linearGradient id="paint2_linear_0_735" x1="383.15" y1="534.364" x2="714.329" y2="352.608" gradientUnits="userSpaceOnUse"><stop offset="0.399445" stop-opacity="0"/><stop offset="1"/></linearGradient><linearGradient id="paint3_linear_0_735" x1="1236.34" y1="317.456" x2="1004.53" y2="669.728" gradientUnits="userSpaceOnUse"><stop stop-color="#16DEA8"/><stop offset="0.635171" stop-color="#1DC0C1"/><stop offset="1" stop-color="#16DEA8"/></linearGradient></defs></svg>