<svg xmlns="http://www.w3.org/2000/svg" width="34" height="26" viewBox="0 0 34 26" fill="none">
  <path d="M1.3802 0.0569746H22.9388C24.2005 0.0273046 25.4524 0.286653 26.5985 0.815176C27.7446 1.3437 28.7546 2.12739 29.5513 3.10629C31.1152 4.96508 31.5168 7.12992 30.8569 9.47447C30.7474 9.85353 30.6098 10.227 30.4891 10.5976C30.9327 11.1114 31.3876 11.5775 31.7695 12.0942C32.7229 13.3549 33.2518 14.8856 33.2801 16.466C33.339 18.7909 32.9066 20.4138 31.3988 22.1743C30.945 22.6873 30.4387 23.1512 29.8882 23.5586C29.0009 24.2241 27.2516 24.9316 26.1341 24.9625C24.7751 25.0131 23.4133 25.1001 22.0571 25.058C19.6227 24.9822 17.705 23.8394 16.2168 21.9694C15.6328 21.2337 15.119 20.4419 14.5939 19.6641L13.92 18.6561C14.1615 18.6365 14.7624 18.6561 15.0151 18.6561C18.5717 18.6561 22.1339 18.6561 25.7017 18.6561C25.9922 18.6652 26.282 18.6233 26.5581 18.5326C27.4005 18.2012 27.8104 17.4347 27.7093 16.452C27.6251 15.6096 27.0719 15.048 26.1678 14.888C25.757 14.816 25.341 14.7775 24.9239 14.7729C21.5714 14.7729 18.2188 14.7729 14.8663 14.7729C13.5831 14.7729 12.3392 14.4921 11.348 13.6497C10.6329 13.0408 9.9672 12.3761 9.35727 11.6618C8.62443 10.8194 7.97582 9.8788 7.29351 8.97748C7.19031 8.81453 7.09656 8.64578 7.01273 8.47207H23.0455C23.214 8.47207 23.3824 8.47207 23.5481 8.47207C24.1377 8.4468 24.4522 8.17444 24.5421 7.62972C24.5779 7.38935 24.5289 7.14399 24.4033 6.93591C24.2777 6.72783 24.0835 6.57005 23.8542 6.48974C23.5746 6.40589 23.2839 6.36518 22.9921 6.369C18.3002 6.369 13.6055 6.369 8.91363 6.35496C8.28697 6.34901 7.66136 6.30211 7.0408 6.21457C6.10184 6.06634 5.23076 5.63423 4.54463 4.97631C3.10525 3.63725 1.8334 2.12875 0.756858 0.483765C0.700701 0.39953 0.554694 0.202982 0.476074 0.0569746" fill="url(#paint0_linear_0_776)"/>
  <path style="mix-blend-mode:screen" opacity="0.75" d="M0.680908 0.0568874H23.1436C25.2048 0.0407027 27.1926 0.821322 28.6919 2.23577H3.88465C3.19382 2.23533 2.51904 2.02738 1.9478 1.63887C1.37656 1.25037 0.93519 0.699223 0.680908 0.0568874Z" fill="url(#paint1_linear_0_776)"/>
  <path style="mix-blend-mode:screen" opacity="0.75" d="M16.8738 22.7329C17.8588 23.7525 19.1004 24.4877 20.4679 24.8613C20.4679 24.8613 21.8184 25.3639 26.3643 24.968C27.577 24.7984 28.7355 24.3569 29.7534 23.6763C29.7534 23.6763 30.5424 23.0783 30.8765 22.7329H16.8738Z" fill="url(#paint2_linear_0_776)"/>
  <defs>
    <linearGradient id="paint0_linear_0_776" x1="5.90363" y1="-1.75689" x2="38.921" y2="26.1109" gradientUnits="userSpaceOnUse">
      <stop stop-color="#9000F2"/>
      <stop offset="0.69" stop-color="#1DC0C1"/>
      <stop offset="1" stop-color="#16DEA8"/>
    </linearGradient>
    <linearGradient id="paint1_linear_0_776" x1="-3.0451" y1="-0.970782" x2="31.6121" y2="3.39822" gradientUnits="userSpaceOnUse">
      <stop stop-color="#9000F2"/>
      <stop offset="0.69" stop-color="#1DC0C1"/>
      <stop offset="1" stop-color="#16DEA8"/>
    </linearGradient>
    <linearGradient id="paint2_linear_0_776" x1="20.6448" y1="19.0939" x2="26.5834" y2="25.7654" gradientUnits="userSpaceOnUse">
      <stop stop-color="#9000F2"/>
      <stop offset="0.69" stop-color="#1DC0C1"/>
      <stop offset="1" stop-color="#16DEA8"/>
    </linearGradient>
  </defs>
</svg>