<svg width="37" height="37" viewBox="0 0 37 37" fill="none" xmlns="http://www.w3.org/2000/svg">
<g clip-path="url(#clip0_0_1498)">
<path d="M6.07743 28.1509C5.83029 28.1509 5.59328 28.0527 5.41853 27.878C5.24377 27.7032 5.1456 27.4662 5.1456 27.219C5.13694 26.2021 5.2306 25.1869 5.42515 24.1887C5.47408 23.9465 5.61725 23.7335 5.82317 23.5968C6.02909 23.4601 6.28088 23.4108 6.52316 23.4597C6.76543 23.5087 6.97835 23.6518 7.11506 23.8578C7.25178 24.0637 7.30109 24.3155 7.25216 24.5577C7.08362 25.4347 7.00226 26.3261 7.00926 27.219C7.00926 27.4662 6.91109 27.7032 6.73633 27.878C6.56158 28.0527 6.32457 28.1509 6.07743 28.1509Z" fill="white" fill-opacity="0.5"/>
<path d="M6.3378 25.3049C6.2752 25.3051 6.21275 25.2989 6.15143 25.2862C5.90927 25.2373 5.69646 25.0941 5.55981 24.8883C5.42316 24.6824 5.37386 24.4307 5.42274 24.1885C5.98743 21.3931 7.33983 19.7779 8.53257 18.3491C9.67375 16.9824 10.6913 15.7673 11.0647 13.6278C10.2265 14.0249 9.31031 14.2299 8.38286 14.2279H7.08327C7.02091 14.2276 6.95912 14.2398 6.90152 14.2637C6.84392 14.2876 6.79166 14.3227 6.74781 14.3671C6.22099 14.8943 5.50632 15.1906 4.761 15.1909C4.01568 15.1912 3.30077 14.8954 2.77355 14.3686C2.24632 13.8418 1.94997 13.1271 1.94968 12.3818C1.94939 11.6365 2.24518 10.9216 2.772 10.3943L3.51746 9.64888C4.12536 9.04228 4.60809 8.32209 4.93819 7.52928C5.76628 5.54883 7.17458 4.30949 8.04802 3.69076V0.933784C8.04802 0.686647 8.1462 0.449632 8.32095 0.27488C8.4957 0.100128 8.73271 0.00195312 8.97985 0.00195312C9.14323 0.00195312 12.8146 0.0373627 14.3373 2.9602C14.7487 3.06118 15.1508 3.19689 15.5393 3.36586C16.8271 3.96472 17.8055 4.84747 18.4516 5.99176C18.5729 6.20702 18.6038 6.46166 18.5373 6.69966C18.4709 6.93766 18.3127 7.13954 18.0975 7.26091C17.8822 7.38222 17.6276 7.41307 17.3896 7.34666C17.1516 7.28026 16.9497 7.12205 16.8283 6.90682C16.3786 6.10917 15.681 5.48484 14.7553 5.05247C14.6125 4.98538 14.2553 4.84561 13.4725 4.66235C13.3271 4.62815 13.1921 4.55951 13.0788 4.4622C12.9655 4.3649 12.8772 4.24179 12.8215 4.10325C12.2543 2.70302 10.8603 2.17747 9.91727 1.97992V4.18836C9.91736 4.34772 9.87657 4.50445 9.79881 4.64355C9.72104 4.78266 9.6089 4.8995 9.4731 4.9829C8.25551 5.72836 7.20565 6.94844 6.66332 8.24555C6.23958 9.26228 5.62031 10.1859 4.84066 10.964L4.0952 11.7095C4.00443 11.7965 3.93193 11.9008 3.88196 12.0162C3.83198 12.1316 3.80553 12.2558 3.80416 12.3816C3.80278 12.5073 3.8265 12.6321 3.87394 12.7485C3.92137 12.865 3.99157 12.9708 4.08041 13.0599C4.16925 13.1489 4.27496 13.2193 4.39134 13.2669C4.50772 13.3146 4.63244 13.3385 4.75819 13.3374C4.88395 13.3362 5.00821 13.31 5.1237 13.2602C5.2392 13.2105 5.34361 13.1382 5.43082 13.0476C5.64743 12.8301 5.90499 12.6578 6.18863 12.5405C6.47226 12.4232 6.77634 12.3633 7.08327 12.3642H8.38224C8.95938 12.3655 9.53105 12.2523 10.0642 12.0313C10.5973 11.8102 11.0814 11.4857 11.4883 11.0764C11.6187 10.946 11.7847 10.8572 11.9655 10.8212C12.1464 10.7852 12.3338 10.8037 12.5041 10.8743C12.6744 10.9448 12.82 11.0643 12.9224 11.2176C13.0248 11.371 13.0794 11.5512 13.0793 11.7356C13.0793 15.8164 11.4946 17.7117 9.962 19.5449C8.80902 20.924 7.72002 22.2261 7.24913 24.5588C7.20636 24.7691 7.09232 24.9581 6.92629 25.0941C6.76025 25.23 6.55238 25.3045 6.3378 25.3049Z" fill="white" fill-opacity="0.5"/>
<path d="M11.8665 32.4613H6.07736C5.38539 32.4595 4.72233 32.1836 4.23333 31.694C3.74432 31.2044 3.46921 30.541 3.46823 29.8491V28.8992C3.46905 28.2067 3.74453 27.5427 4.23424 27.053C4.72395 26.5633 5.38791 26.2878 6.08046 26.287H14.5483C14.7955 26.287 15.0325 26.3852 15.2072 26.5599C15.382 26.7347 15.4801 26.9717 15.4801 27.2188C15.4801 27.466 15.382 27.703 15.2072 27.8777C15.0325 28.0525 14.7955 28.1506 14.5483 28.1506H6.07736C5.87946 28.1518 5.69005 28.2311 5.55041 28.3714C5.41076 28.5116 5.33222 28.7013 5.33189 28.8992V29.8491C5.33222 30.047 5.41076 30.2367 5.55041 30.3769C5.69005 30.5172 5.87946 30.5965 6.07736 30.5976H11.8665C12.1136 30.5976 12.3507 30.6958 12.5254 30.8706C12.7002 31.0453 12.7983 31.2823 12.7983 31.5295C12.7983 31.7766 12.7002 32.0136 12.5254 32.1884C12.3507 32.3631 12.1136 32.4613 11.8665 32.4613Z" fill="white" fill-opacity="0.5"/>
<path d="M32.2045 36.7715H16.8032C16.1106 36.7708 15.4466 36.4954 14.9568 36.0056C14.4671 35.5159 14.1916 34.8518 14.191 34.1592V33.21C14.1916 32.5174 14.4671 31.8534 14.9568 31.3636C15.4466 30.8739 16.1106 30.5984 16.8032 30.5978H32.2045C32.8971 30.5984 33.5612 30.8739 34.0509 31.3636C34.5406 31.8534 34.8161 32.5174 34.8167 33.21V34.1592C34.8161 34.8518 34.5406 35.5159 34.0509 36.0056C33.5612 36.4954 32.8971 36.7708 32.2045 36.7715ZM16.8032 32.4614C16.6047 32.4616 16.4144 32.5405 16.2741 32.6809C16.1337 32.8212 16.0548 33.0115 16.0546 33.21V34.1592C16.0548 34.3577 16.1337 34.548 16.2741 34.6884C16.4144 34.8287 16.6047 34.9076 16.8032 34.9078H32.2045C32.403 34.9076 32.5933 34.8287 32.7336 34.6884C32.874 34.548 32.9529 34.3577 32.9531 34.1592V33.21C32.9529 33.0115 32.874 32.8212 32.7336 32.6809C32.5933 32.5405 32.403 32.4616 32.2045 32.4614H16.8032Z" fill="white" fill-opacity="0.5"/>
<path d="M28.7098 17.4775H20.2984C19.5683 17.4666 18.8717 17.1689 18.3592 16.6487C17.8467 16.1285 17.5594 15.4275 17.5594 14.6973C17.5594 13.967 17.8467 13.2661 18.3592 12.7458C18.8717 12.2256 19.5683 11.9279 20.2984 11.917H28.7098C29.4399 11.9279 30.1365 12.2256 30.649 12.7458C31.1615 13.2661 31.4488 13.967 31.4488 14.6973C31.4488 15.4275 31.1615 16.1285 30.649 16.6487C30.1365 17.1689 29.4399 17.4666 28.7098 17.4775ZM20.2984 13.7807C20.0595 13.7869 19.8324 13.8862 19.6656 14.0574C19.4987 14.2286 19.4054 14.4582 19.4054 14.6973C19.4054 14.9363 19.4987 15.1659 19.6656 15.3371C19.8324 15.5084 20.0595 15.6077 20.2984 15.6139H28.7098C28.9487 15.6077 29.1758 15.5084 29.3426 15.3371C29.5095 15.1659 29.6028 14.9363 29.6028 14.6973C29.6028 14.4582 29.5095 14.2286 29.3426 14.0574C29.1758 13.8862 28.9487 13.7869 28.7098 13.7807H20.2984Z" fill="white" fill-opacity="0.5"/>
<path d="M24.504 13.7809C23.5675 13.7809 22.6521 13.5032 21.8734 12.9829C21.0948 12.4627 20.4879 11.7232 20.1295 10.858C19.7711 9.99276 19.6774 9.04073 19.8601 8.12224C20.0428 7.20375 20.4937 6.36006 21.1559 5.69787C21.8181 5.03568 22.6618 4.58472 23.5803 4.40202C24.4988 4.21932 25.4508 4.31309 26.316 4.67146C27.1812 5.02984 27.9207 5.63673 28.441 6.41539C28.9613 7.19404 29.239 8.1095 29.239 9.04598C29.2376 10.3014 28.7384 11.5049 27.8507 12.3926C26.963 13.2803 25.7594 13.7796 24.504 13.7809ZM24.504 6.1747C23.9361 6.1747 23.381 6.3431 22.9088 6.6586C22.4366 6.9741 22.0686 7.42253 21.8513 7.94719C21.634 8.47185 21.5771 9.04916 21.6879 9.60614C21.7987 10.1631 22.0722 10.6747 22.4737 11.0763C22.8753 11.4778 23.3869 11.7513 23.9439 11.8621C24.5008 11.9729 25.0781 11.916 25.6028 11.6987C26.1275 11.4814 26.5759 11.1134 26.8914 10.6412C27.2069 10.169 27.3753 9.61386 27.3753 9.04598C27.3745 8.28472 27.0717 7.55488 26.5334 7.01658C25.9951 6.47829 25.2653 6.17552 24.504 6.1747Z" fill="white" fill-opacity="0.5"/>
<path d="M17.4923 32.4616C17.2452 32.4616 17.0082 32.3635 16.8334 32.1887C16.6587 32.014 16.5605 31.7769 16.5605 31.5298V31.3869C16.5636 28.7945 17.3768 26.2679 18.8863 24.1603L18.9659 24.0478C20.1288 22.4165 21.2209 20.8753 21.2209 16.546C21.2209 16.2988 21.3191 16.0618 21.4938 15.8871C21.6686 15.7123 21.9056 15.6141 22.1527 15.6141C22.3998 15.6141 22.6369 15.7123 22.8116 15.8871C22.9864 16.0618 23.0845 16.2988 23.0845 16.546C23.0845 21.4698 21.7042 23.4129 20.4866 25.1269L20.4077 25.2381C19.1216 27.0312 18.4281 29.1815 18.4241 31.3882V31.531C18.4238 31.778 18.3255 32.0147 18.1508 32.1891C17.9761 32.3636 17.7392 32.4616 17.4923 32.4616Z" fill="white" fill-opacity="0.5"/>
<path d="M31.5159 32.4617C31.2687 32.4617 31.0317 32.3635 30.857 32.1887C30.6822 32.014 30.584 31.777 30.584 31.5298V31.3869C30.5801 29.1803 29.8866 27.03 28.6005 25.2369L28.5216 25.1257C27.304 23.4117 25.9236 21.4685 25.9236 16.5447C25.9236 16.2976 26.0218 16.0606 26.1966 15.8858C26.3713 15.7111 26.6083 15.6129 26.8555 15.6129C27.1026 15.6129 27.3396 15.7111 27.5144 15.8858C27.6891 16.0606 27.7873 16.2976 27.7873 16.5447C27.7873 20.874 28.8819 22.4153 30.0411 24.0466L30.1206 24.159C31.6308 26.2668 32.4444 28.794 32.4477 31.3869V31.5298C32.4477 31.777 32.3495 32.014 32.1748 32.1887C32 32.3635 31.763 32.4617 31.5159 32.4617Z" fill="white" fill-opacity="0.5"/>
</g>
<defs>
<clipPath id="clip0_0_1498">
<rect width="36.7713" height="36.7713" fill="white"/>
</clipPath>
</defs>
</svg>
