<svg xmlns="http://www.w3.org/2000/svg" width="506" height="785" viewBox="0 0 506 785" fill="none"><g opacity="0.09"><path d="M28.3071 0.071606H703.281C742.785 -0.857327 781.978 7.26255 817.861 23.81C853.744 40.3574 885.367 64.8938 910.309 95.5419C959.275 153.738 971.846 221.517 951.187 294.922C947.759 306.79 943.451 318.482 939.671 330.086C953.561 346.174 967.802 360.767 979.758 376.942C1009.61 416.413 1026.17 464.338 1027.05 513.818C1028.9 586.608 1015.36 637.42 968.154 692.539C953.946 708.598 938.094 723.124 920.858 735.879C893.078 756.714 838.311 778.867 803.322 779.834C760.774 781.416 718.137 784.142 675.677 782.823C599.459 780.449 539.416 744.67 492.824 686.122C474.539 663.089 458.451 638.299 442.012 613.948L420.913 582.388C428.474 581.773 447.286 582.388 455.198 582.388C566.551 582.388 678.08 582.388 789.784 582.388C798.879 582.671 807.953 581.362 816.597 578.52C842.97 568.147 855.805 544.147 852.64 513.379C850.003 487.005 832.684 469.423 804.377 464.413C791.515 462.159 778.491 460.954 765.433 460.808C660.469 460.808 555.504 460.808 450.539 460.808C410.364 460.808 371.42 452.017 340.388 425.644C317.997 406.58 297.156 385.768 278.06 363.404C255.115 337.031 234.808 307.581 213.446 279.362C210.214 274.26 207.279 268.977 204.655 263.538H706.621C711.896 263.538 717.17 263.538 722.357 263.538C740.818 262.747 750.664 254.22 753.477 237.165C754.6 229.639 753.064 221.958 749.132 215.443C745.201 208.928 739.121 203.988 731.939 201.474C723.188 198.849 714.087 197.574 704.951 197.693C558.053 197.693 411.068 197.693 264.17 197.254C244.55 197.068 224.962 195.599 205.534 192.858C176.136 188.218 148.863 174.689 127.382 154.09C82.3164 112.166 42.4961 64.9363 8.79101 13.4339C7.03281 10.7966 2.46148 4.64293 0 0.071606" fill="url(#paint0_linear_0_727)"/><path opacity="0.75" d="M6.41736 0.0699806H709.698C774.231 -0.43674 836.465 24.0035 883.408 68.2882H106.723C85.0935 68.2743 63.9671 61.7636 46.0822 49.6C28.1973 37.4363 14.3786 20.1807 6.41736 0.0699806Z" fill="url(#paint1_linear_0_727)" style="mix-blend-mode: screen;"/></g><defs><linearGradient id="paint0_linear_0_727" x1="169.93" y1="-56.7183" x2="1203.66" y2="815.789" gradientUnits="userSpaceOnUse"><stop stop-color="#9000F2"/><stop offset="0.69" stop-color="#1DC0C1"/><stop offset="1" stop-color="#16DEA8"/></linearGradient><linearGradient id="paint1_linear_0_727" x1="-110.239" y1="-32.1051" x2="974.835" y2="104.683" gradientUnits="userSpaceOnUse"><stop stop-color="#9000F2"/><stop offset="0.69" stop-color="#1DC0C1"/><stop offset="1" stop-color="#16DEA8"/></linearGradient></defs></svg>