<svg width="37" height="37" viewBox="0 0 37 37" fill="none" xmlns="http://www.w3.org/2000/svg">
<path d="M18.3859 1.14893C14.9768 1.14893 11.6443 2.15983 8.80976 4.05381C5.97523 5.94778 3.76598 8.63976 2.46138 11.7893C1.15679 14.9389 0.81545 18.4046 1.48053 21.7481C2.1456 25.0917 3.78722 28.163 6.19779 30.5735C8.60837 32.9841 11.6796 34.6257 15.0232 35.2908C18.3667 35.9559 21.8324 35.6145 24.982 34.3099C28.1316 33.0054 30.8235 30.7961 32.7175 27.9616C34.6115 25.127 35.6224 21.7945 35.6224 18.3855C35.6172 13.8156 33.7996 9.43446 30.5682 6.2031C27.3369 2.97174 22.9557 1.1541 18.3859 1.14893ZM18.3859 33.3238C16.013 33.3238 13.5286 30.2649 12.2956 25.2801H24.4761C23.2431 30.2649 20.7588 33.3238 18.3859 33.3238ZM11.8291 22.9819C11.3786 19.9342 11.3786 16.8368 11.8291 13.7891H24.9426C25.1705 15.3105 25.2835 16.847 25.2805 18.3855C25.2835 19.9239 25.1705 21.4604 24.9426 22.9819H11.8291ZM3.44753 18.3855C3.44837 16.8245 3.695 15.2733 4.17836 13.7891H9.52169C9.0835 16.8377 9.0835 19.9333 9.52169 22.9819H4.17836C3.695 21.4976 3.44837 19.9465 3.44753 18.3855ZM18.3859 3.44713C20.7588 3.44713 23.2431 6.50604 24.4761 11.4908H12.2956C13.5286 6.50604 16.013 3.44713 18.3859 3.44713ZM27.25 13.7891H32.5934C33.5675 16.7759 33.5675 19.995 32.5934 22.9819H27.25C27.4679 21.4594 27.5778 19.9234 27.5787 18.3855C27.5778 16.8475 27.4679 15.3115 27.25 13.7891ZM31.6247 11.4908H26.8364C26.325 8.99157 25.3223 6.61874 23.8866 4.51005C27.2169 5.83819 29.9618 8.31446 31.6247 11.4908ZM12.8851 4.51005C11.4494 6.61874 10.4467 8.99157 9.93537 11.4908H5.14706C6.80995 8.31446 9.55485 5.83819 12.8851 4.51005ZM5.14706 25.2801H9.93537C10.4467 27.7794 11.4494 30.1522 12.8851 32.2609C9.55485 30.9327 6.80995 28.4565 5.14706 25.2801ZM23.8866 32.2609C25.3223 30.1522 26.325 27.7794 26.8364 25.2801H31.6247C29.9618 28.4565 27.2169 30.9327 23.8866 32.2609Z" fill="white" fill-opacity="0.5"/>
</svg>
